# xmcd
#
# Track frame offsets:
#	150
#	22557
#	44612
#	68127
#	90320
#	113545
#	136040
#	158827
#	178902
#
# Disc length: 2674 seconds
#
# Revision: 10
# Processed by: cddbd v1.5.2PL0 Copyright (c) Steve Scherf et al.
# Submitted via: EasyCDDAExtractor 15.3.0.1
#
DISCID=630a7009
DTITLE=Victor Manuelle - Ironias
DYEAR=1998
DGENRE=Latin
TTITLE0=Se Me Rompe El Alma
TTITLE1=Que Habria Sido De Mi
TTITLE2=Y Despues De Nuevo Amigos
TTITLE3=Mentiras
TTITLE4=Al Igual Que Yo
TTITLE5=La Dueña De Mis Amores
TTITLE6=Que Te Han Dicho
TTITLE7=Hay Cariño
TTITLE8=No Te Desprecio
EXTD=
EXTT0=
EXTT1=
EXTT2=
EXTT3=
EXTT4=
EXTT5=
EXTT6=
EXTT7=
EXTT8=
PLAYORDER=
